<?xml version="1.0" encoding="utf-8"?>
<!-- Generator: Adobe Illustrator 16.0.3, SVG Export Plug-In . SVG Version: 6.00 Build 0)  -->
<!DOCTYPE svg PUBLIC "-//W3C//DTD SVG 1.0//EN" "http://www.w3.org/TR/2001/REC-SVG-20010904/DTD/svg10.dtd">
<svg version="1.0" id="Layer_1" xmlns="http://www.w3.org/2000/svg" xmlns:xlink="http://www.w3.org/1999/xlink" x="0px" y="0px"
	 width="456.229px" height="75.051px" viewBox="0 0 456.229 75.051" enable-background="new 0 0 456.229 75.051"
	 xml:space="preserve">
<circle fill="#A81923" cx="31.806" cy="42.486" r="5.176"/>
<circle fill="#009D40" cx="94.134" cy="42.486" r="5.176"/>
<g>
	<path fill="#2B2523" d="M21,31.681c-2.887,2.886-4.476,6.724-4.476,10.806c0,4.083,1.589,7.92,4.476,10.805
		c2.886,2.888,6.724,4.477,10.806,4.477c8.427,0,15.282-6.854,15.282-15.281c0-8.426-6.855-15.282-15.282-15.282
		C27.724,27.205,23.886,28.794,21,31.681z M24.312,49.98c-2.002-2.002-3.104-4.663-3.104-7.494c0-2.831,1.102-5.492,3.104-7.494
		s4.663-3.104,7.494-3.104c5.844,0,10.599,4.754,10.599,10.598s-4.755,10.598-10.599,10.598
		C28.975,53.084,26.313,51.982,24.312,49.98z"/>
</g>
<g>
	<path fill="#2B2523" d="M83.328,31.681c-2.887,2.886-4.476,6.724-4.476,10.806c0,4.083,1.589,7.92,4.476,10.805
		c2.886,2.888,6.724,4.477,10.806,4.477c8.427,0,15.282-6.854,15.282-15.281c0-8.426-6.855-15.282-15.282-15.282
		C90.051,27.205,86.214,28.794,83.328,31.681z M86.639,49.98c-2.002-2.002-3.104-4.663-3.104-7.494c0-2.831,1.102-5.492,3.104-7.494
		s4.663-3.104,7.494-3.104c5.844,0,10.599,4.754,10.599,10.598s-4.754,10.598-10.599,10.598
		C91.302,53.084,88.641,51.982,86.639,49.98z"/>
</g>
<g>
	<path fill="none" d="M94.133,16.926c-14.094,0-25.561,11.466-25.561,25.561c0,14.095,11.467,25.561,25.561,25.561
		s25.561-11.466,25.561-25.561C119.694,28.392,108.227,16.926,94.133,16.926z"/>
	<path fill="none" d="M31.806,16.926c-14.094,0-25.561,11.466-25.561,25.561c0,14.095,11.467,25.561,25.561,25.561
		s25.561-11.466,25.561-25.561C57.367,28.392,45.9,16.926,31.806,16.926z"/>
	<path fill="#2B2523" d="M118.759,22.391c1.2-3.572,3.034-7.779,5.568-10.313h-20.886c-0.346-0.106-0.707-0.178-1.058-0.273
		C101.248,10.024,93.48,0,62.431,0C28.355,0,22.316,12.077,22.316,12.077H0.534c2.779,2.779,4.71,7.562,5.892,11.32
		C2.411,28.722,0,35.319,0,42.486c0,17.538,14.268,31.805,31.806,31.805c9.722,0,18.427-4.394,24.266-11.291l7.222,10.111
		l6.232-10.505c5.837,7.126,14.699,11.685,24.608,11.685c17.538,0,31.806-14.267,31.806-31.805
		C125.938,34.87,123.241,27.873,118.759,22.391z M31.806,68.047c-14.094,0-25.561-11.466-25.561-25.561
		c0-14.094,11.467-25.561,25.561-25.561s25.561,11.466,25.561,25.561C57.367,56.581,45.9,68.047,31.806,68.047z M94.133,68.047
		c-14.094,0-25.561-11.466-25.561-25.561c0-14.094,11.467-25.561,25.561-25.561s25.561,11.466,25.561,25.561
		C119.694,56.581,108.227,68.047,94.133,68.047z"/>
</g>
<path fill="#FFDE7E" d="M64.371,3.667c21.782,0,29.978,9.058,29.978,9.058S71.057,8.843,63.293,37.526
	C55.529,8.843,32.237,12.725,32.237,12.725s8.195-9.058,29.978-9.058H64.371z"/>
<path fill="#13110C" d="M149.459,18.987v8.149h8.852v4.708h-8.852V50.18c0,4.216,1.194,6.604,4.636,6.604
	c1.687,0,2.67-0.141,3.583-0.421l0.281,4.708c-1.194,0.421-3.091,0.841-5.479,0.841c-2.881,0-5.199-0.982-6.675-2.598
	c-1.686-1.898-2.388-4.918-2.388-8.924V31.843h-5.269v-4.708h5.269v-6.252L149.459,18.987z"/>
<path fill="#13110C" d="M163.861,37.745c0-4.004-0.07-7.447-0.281-10.609h5.41l0.281,6.675h0.211
	c1.545-4.567,5.339-7.447,9.484-7.447c0.633,0,1.125,0.07,1.686,0.21v5.761c-0.703-0.07-1.334-0.141-2.178-0.141
	c-4.356,0-7.447,3.303-8.29,7.869c-0.14,0.914-0.21,1.897-0.21,2.951V61.14h-6.182L163.861,37.745z"/>
<path fill="#13110C" d="M188.52,20.883c-2.318,0-3.864-1.826-3.864-4.004c0-2.178,1.616-3.934,4.004-3.934s3.935,1.756,3.935,3.934
	c0,2.178-1.546,4.004-4.004,4.004H188.52z M185.569,61.14V27.136h6.182V61.14H185.569z"/>
<path fill="#13110C" d="M200.533,38.237c0-4.356-0.07-7.869-0.281-11.101h5.55l0.352,5.832h0.14
	c2.458-4.216,6.534-6.604,12.013-6.604c8.29,0,14.473,6.955,14.473,17.282c0,12.225-7.517,18.265-15.456,18.265
	c-4.566,0-8.43-1.967-10.468-5.339h-0.141v18.479h-6.182V38.237z M206.715,47.299c0,0.843,0.07,1.757,0.281,2.529
	c1.054,4.286,4.848,7.236,9.203,7.236c6.534,0,10.328-5.339,10.328-13.137c0-6.815-3.513-12.646-10.047-12.646
	c-4.215,0-8.22,2.951-9.414,7.587c-0.141,0.843-0.352,1.756-0.352,2.529V47.299z"/>
<path fill="#498532" d="M262.987,52.989c0,2.952,0.142,5.832,0.492,8.15h-5.55l-0.563-4.287h-0.211
	c-1.826,2.672-5.55,5.059-10.397,5.059c-6.884,0-10.397-4.847-10.397-9.765c0-8.219,7.306-12.715,20.444-12.645v-0.703
	c0-2.81-0.773-7.938-7.728-7.869c-3.232,0-6.534,0.914-8.923,2.53l-1.405-4.146c2.81-1.756,6.955-2.95,11.241-2.95
	c10.468,0,12.997,7.096,12.997,13.91V52.989z M256.946,43.786c-6.745-0.14-14.402,1.054-14.402,7.658
	c0,4.074,2.669,5.901,5.761,5.901c4.496,0,7.377-2.811,8.36-5.69c0.21-0.633,0.281-1.335,0.281-1.967V43.786z"/>
<path fill="#498532" d="M300.783,11.259v41.1c0,3.021,0.07,6.463,0.282,8.781h-5.551l-0.281-5.901h-0.14
	c-1.896,3.793-5.972,6.673-11.521,6.673c-8.221,0-14.613-6.955-14.613-17.282c-0.07-11.381,7.025-18.266,15.244-18.266
	c5.27,0,8.782,2.458,10.258,5.128h0.141V11.259H300.783z M294.602,40.977c0-0.843-0.07-1.827-0.281-2.67
	c-0.913-3.864-4.285-7.095-8.922-7.095c-6.395,0-10.188,5.62-10.188,13.067c0,6.955,3.442,12.644,10.048,12.644
	c4.144,0,7.938-2.809,9.062-7.375c0.211-0.843,0.281-1.687,0.281-2.671V40.977z"/>
<path fill="#498532" d="M311.886,27.136l6.673,19.04c1.124,3.162,2.037,5.971,2.74,8.781h0.212c0.771-2.81,1.756-5.619,2.88-8.781
	l6.604-19.04h6.464l-13.35,34.004h-5.9l-12.927-34.004H311.886z"/>
<path fill="#498532" d="M344.763,20.883c-2.317,0-3.863-1.826-3.863-4.004c0-2.178,1.616-3.934,4.003-3.934
	c2.39,0,3.936,1.756,3.936,3.934c0,2.178-1.546,4.004-4.005,4.004H344.763z M341.813,61.14V27.136h6.183V61.14H341.813z"/>
<path fill="#498532" d="M355.934,54.886c1.896,1.126,5.129,2.39,8.219,2.39c4.426,0,6.535-2.179,6.535-5.058
	c0-2.951-1.757-4.567-6.253-6.253c-6.183-2.248-9.063-5.55-9.063-9.625c0-5.479,4.496-9.976,11.733-9.976
	c3.442,0,6.463,0.913,8.289,2.107l-1.476,4.427c-1.334-0.773-3.794-1.968-6.956-1.968c-3.652,0-5.619,2.108-5.619,4.637
	c0,2.88,1.967,4.145,6.393,5.831c5.832,2.178,8.924,5.129,8.924,10.257c0,6.042-4.708,10.256-12.646,10.256
	c-3.724,0-7.166-0.982-9.556-2.387L355.934,54.886z"/>
<path fill="#498532" d="M396.961,61.911c-9.134,0-16.3-6.744-16.3-17.492c0-11.381,7.518-18.055,16.86-18.055
	c9.766,0,16.37,7.096,16.37,17.422c0,12.646-8.782,18.125-16.86,18.125H396.961z M397.171,57.275c5.902,0,10.328-5.55,10.328-13.278
	c0-5.761-2.882-12.998-10.188-12.998c-7.236,0-10.398,6.745-10.398,13.208c0,7.447,4.216,13.067,10.188,13.067H397.171z"/>
<path fill="#498532" d="M420.284,37.745c0-4.004-0.07-7.447-0.28-10.609h5.409l0.28,6.675h0.211
	c1.546-4.567,5.339-7.447,9.484-7.447c0.633,0,1.124,0.07,1.687,0.21v5.761c-0.703-0.07-1.334-0.141-2.178-0.141
	c-4.355,0-7.447,3.303-8.291,7.869c-0.14,0.914-0.21,1.897-0.21,2.951V61.14h-6.183L420.284,37.745z"/>
<g>
	<g>
		<g>
			<path fill="#498532" d="M446.389,26.675c0.516-0.098,1.271-0.163,2.135-0.163c1.049,0,1.785,0.163,2.29,0.585
				c0.43,0.347,0.661,0.855,0.661,1.527c0,0.921-0.641,1.561-1.25,1.788v0.033c0.494,0.206,0.767,0.682,0.946,1.354
				c0.22,0.834,0.431,1.788,0.567,2.07H450.1c-0.105-0.206-0.285-0.802-0.484-1.702c-0.2-0.92-0.505-1.159-1.167-1.169h-0.473v2.871
				h-1.587V26.675z M447.976,29.806h0.63c0.799,0,1.271-0.412,1.271-1.051c0-0.662-0.44-1.008-1.177-1.008
				c-0.389,0-0.61,0.021-0.725,0.054V29.806z"/>
		</g>
		<g>
			<path fill="#498532" d="M441.743,30.472c0,3.994,3.249,7.243,7.242,7.243c3.994,0,7.243-3.249,7.243-7.243
				s-3.249-7.243-7.243-7.243C444.992,23.229,441.743,26.478,441.743,30.472z M443.305,30.472c0-3.133,2.547-5.682,5.681-5.682
				c3.133,0,5.682,2.549,5.682,5.682c0,3.133-2.549,5.682-5.682,5.682C445.852,36.153,443.305,33.605,443.305,30.472z"/>
		</g>
	</g>
</g>
</svg>
